# File created by Blade
# Date/Time:  Tue Jan 27 18:12:42 2015
# Frame Rate: 120.000 fps
#------------------------------------------------------
:FULLY-SPECIFIED
:DEGREES
2498
root -1.422713 31.799774 -6.515001 6.526666 9.291436 3.478116
Spine -7.382264 -10.838925 -3.012687
Head 14.459227 -51.295830 -1.671715
LeftShoulder -14.242563 17.385839 3.531403
LeftArm 28.160025 41.834577 -65.923774
LeftForeArm -1.574142 0.000000 16.179065
LeftHand -10.877909 -0.000000 -4.736072
LeftHandThumb1 -26.253704 0.000000 33.147579
RightShoulder -6.386809 9.070230 -17.165578
RightArm -15.073407 62.177708 47.829222
RightForeArm 29.655393 -0.000000 104.495263
RightHand -6.631781 -0.000000 6.641699
RightHandThumb1 -24.326973 -0.000000 -32.862282
LeftUpLeg -2.478631 -2.038031 -0.998490
LeftLeg 1.401748 -0.000000 -0.000000
LeftFoot -17.958018 15.464476 -24.472268
LeftToeBase 8.679921 -0.000000 -0.000000
RightUpLeg 1.023601 -5.145574 -3.689684
RightLeg -3.177069 -0.000000 0.000000
RightFoot -16.281718 -14.850142 10.154803
RightToeBase 5.224290 -0.000000 -0.000000
2499
root -1.427038 31.799787 -6.514746 6.537730 9.284524 3.466415
Spine -7.391478 -10.827990 -3.029740
Head 14.450034 -51.253894 -1.630048
LeftShoulder -14.258791 17.404975 3.521566
LeftArm 28.107714 41.811059 -65.977675
LeftForeArm -1.529829 -0.000000 16.188479
LeftHand -10.867333 -0.000000 -4.807144
LeftHandThumb1 -26.253704 0.000000 33.147579
RightShoulder -6.410576 9.085483 -17.118591
RightArm -15.120424 62.136405 47.816086
RightForeArm 29.664210 0.000000 104.979123
RightHand -6.534746 -0.000000 6.682133
RightHandThumb1 -24.326973 -0.000000 -32.862282
LeftUpLeg -2.492387 -2.025513 -0.978687
LeftLeg 1.401714 -0.000000 -0.000000
LeftFoot -17.945197 15.468760 -24.437644
LeftToeBase 8.677946 -0.000000 -0.000000
RightUpLeg 1.007504 -5.141288 -3.668357
RightLeg -3.177662 -0.000000 0.000000
RightFoot -16.275176 -14.861432 10.128314
RightToeBase 5.236926 -0.000000 -0.000000
2500
root -1.429929 31.799551 -6.514610 6.547488 9.287098 3.465631
Spine -7.394257 -10.817844 -3.059999
Head 14.445141 -51.236271 -1.578092
LeftShoulder -14.274519 17.437833 3.515760
LeftArm 28.090202 41.802506 -66.013305
LeftForeArm -1.514216 0.000000 16.199127
LeftHand -10.841566 0.000000 -4.787924
LeftHandThumb1 -26.253704 0.000000 33.147579
RightShoulder -6.425530 9.053385 -17.075575
RightArm -15.137042 62.154558 47.843701
RightForeArm 29.739585 -0.000000 105.395917
RightHand -6.555094 -0.000000 6.657987
RightHandThumb1 -24.326973 -0.000000 -32.862282
LeftUpLeg -2.501662 -2.060781 -0.971021
LeftLeg 1.399267 -0.000000 -0.000000
LeftFoot -17.952439 15.506763 -24.437809
LeftToeBase 8.676897 -0.000000 -0.000000
RightUpLeg 0.994470 -5.131589 -3.661974
RightLeg -3.169267 -0.000000 0.000000
RightFoot -16.287122 -14.858169 10.139017
RightToeBase 5.216627 -0.000000 -0.000000
2501
root -1.432460 31.799184 -6.513756 6.555092 9.287546 3.463567
Spine -7.398084 -10.818133 -3.082902
Head 14.440780 -51.194416 -1.551184
LeftShoulder -14.297882 17.443735 3.514621
LeftArm 28.045992 41.807467 -66.073264
LeftForeArm -1.515115 -0.000000 16.178398
LeftHand -10.789133 0.000000 -4.760651
LeftHandThumb1 -26.253704 0.000000 33.147579
RightShoulder -6.443699 9.041262 -17.037915
RightArm -15.098787 62.136802 47.937994
RightForeArm 29.912862 0.000000 105.793615
RightHand -6.607353 0.000000 6.466032
RightHandThumb1 -24.326973 -0.000000 -32.862282
LeftUpLeg -2.509164 -2.064332 -0.965070
LeftLeg 1.398884 -0.000000 -0.000000
LeftFoot -17.954278 15.502031 -24.460272
LeftToeBase 8.666929 -0.000000 -0.000000
RightUpLeg 0.981031 -5.156169 -3.653396
RightLeg -3.157917 -0.000000 0.000000
RightFoot -16.287014 -14.843898 10.119991
RightToeBase 5.196173 -0.000000 -0.000000
2502
root -1.435700 31.799028 -6.513717 6.563855 9.297892 3.455904
Spine -7.401226 -10.809972 -3.105263
Head 14.444499 -51.166026 -1.522533
LeftShoulder -14.297151 17.459173 3.523610
LeftArm 28.027367 41.840985 -66.101785
LeftForeArm -1.561353 -0.000000 16.174703
LeftHand -10.781047 -0.000000 -4.700407
LeftHandThumb1 -26.253704 0.000000 33.147579
RightShoulder -6.476342 9.037281 -16.975673
RightArm -15.088463 62.128597 47.947809
RightForeArm 29.967700 0.000000 106.052362
RightHand -6.531925 -0.000000 6.584593
RightHandThumb1 -24.326973 -0.000000 -32.862282
LeftUpLeg -2.522821 -2.077177 -0.947651
LeftLeg 1.404827 -0.000000 -0.000000
LeftFoot -17.974445 15.477968 -24.494703
LeftToeBase 8.714381 -0.000000 -0.000000
RightUpLeg 0.975406 -5.141447 -3.638748
RightLeg -3.164679 -0.000000 0.000000
RightFoot -16.292078 -14.869359 10.133866
RightToeBase 5.238862 -0.000000 -0.000000
2503
root -1.437511 31.799105 -6.512885 6.572986 9.308207 3.451616
Spine -7.410655 -10.803157 -3.122416
Head 14.462219 -51.118565 -1.523623
LeftShoulder -14.301311 17.482808 3.522884
LeftArm 28.014606 41.855383 -66.135731
LeftForeArm -1.550035 -0.000000 16.159510
LeftHand -10.788752 -0.000000 -4.783361
LeftHandThumb1 -26.253704 0.000000 33.147579
RightShoulder -6.502779 9.019450 -16.935414
RightArm -15.063321 62.132355 47.993977
RightForeArm 30.037605 0.000000 106.283545
RightHand -6.633595 -0.000000 6.507315
RightHandThumb1 -24.326973 -0.000000 -32.862282
LeftUpLeg -2.533795 -2.078405 -0.939287
LeftLeg 1.405493 -0.000000 -0.000000
LeftFoot -17.964834 15.484523 -24.481862
LeftToeBase 8.681440 -0.000000 -0.000000
RightUpLeg 0.968162 -5.150014 -3.628612
RightLeg -3.165422 -0.000000 0.000000
RightFoot -16.292112 -14.868717 10.133474
RightToeBase 5.222882 -0.000000 -0.000000
2504
root -1.439390 31.798985 -6.512996 6.576983 9.321168 3.449771
Spine -7.404203 -10.797265 -3.148990
Head 14.455884 -51.076431 -1.499320
LeftShoulder -14.301450 17.466264 3.545000
LeftArm 27.965222 41.888770 -66.195587
LeftForeArm -1.554530 0.000000 16.158707
LeftHand -10.861829 -0.000000 -4.906494
LeftHandThumb1 -26.253704 0.000000 33.147579
RightShoulder -6.541453 9.034494 -16.892228
RightArm -15.043551 62.124948 48.031180
RightForeArm 30.171350 0.000000 106.425719
RightHand -6.641098 -0.000000 6.572992
RightHandThumb1 -24.326973 -0.000000 -32.862282
LeftUpLeg -2.546616 -2.072427 -0.934177
LeftLeg 1.418578 -0.000000 -0.000000
LeftFoot -17.962619 15.477954 -24.449603
LeftToeBase 8.681603 -0.000000 -0.000000
RightUpLeg 0.960585 -5.143223 -3.622325
RightLeg -3.152814 -0.000000 0.000000
RightFoot -16.300459 -14.892252 10.112564
RightToeBase 5.221351 -0.000000 -0.000000
2505
root -1.439835 31.799065 -6.512861 6.583300 9.336262 3.446507
Spine -7.408557 -10.804927 -3.159106
Head 14.467929 -51.013347 -1.513865
LeftShoulder -14.305010 17.478284 3.543296
LeftArm 27.927071 41.905731 -66.236202
LeftForeArm -1.564425 -0.000000 16.176498
LeftHand -10.888553 -0.000000 -4.896238
LeftHandThumb1 -26.253704 0.000000 33.147579
RightShoulder -6.554688 9.037329 -16.856828
RightArm -15.027751 62.113527 48.050189
RightForeArm 30.353756 -0.000000 106.500755
RightHand -6.636924 -0.000000 6.624374
RightHandThumb1 -24.326973 -0.000000 -32.862282
LeftUpLeg -2.552868 -2.095307 -0.928592
LeftLeg 1.412027 -0.000000 -0.000000
LeftFoot -17.956662 15.497750 -24.443352
LeftToeBase 8.670478 -0.000000 -0.000000
RightUpLeg 0.935265 -5.213272 -3.613023
RightLeg -3.110492 -0.000000 0.000000
RightFoot -16.312212 -14.841284 10.112121
RightToeBase 5.219549 -0.000000 -0.000000
2506
root -1.442085 31.799028 -6.513434 6.587406 9.347673 3.441951
Spine -7.403418 -10.797752 -3.181001
Head 14.479017 -50.931172 -1.514645
LeftShoulder -14.313430 17.484704 3.552829
LeftArm 27.913692 41.932415 -66.258853
LeftForeArm -1.563587 -0.000000 16.193178
LeftHand -10.898296 -0.000000 -4.840648
LeftHandThumb1 -26.253704 0.000000 33.147579
RightShoulder -6.588185 9.058905 -16.813972
RightArm -15.019201 62.057182 48.055353
RightForeArm 30.526125 0.000000 106.539094
RightHand -6.630177 -0.000000 6.550769
RightHandThumb1 -24.326973 -0.000000 -32.862282
LeftUpLeg -2.564617 -2.095337 -0.918248
LeftLeg 1.421787 -0.000000 -0.000000
LeftFoot -17.957681 15.473421 -24.459203
LeftToeBase 8.673034 -0.000000 -0.000000
RightUpLeg 0.941345 -5.167681 -3.604376
RightLeg -3.132943 -0.000000 0.000000
RightFoot -16.308690 -14.894950 10.118643
RightToeBase 5.207535 -0.000000 -0.000000
2507
root -1.441604 31.799231 -6.513143 6.588386 9.367194 3.444843
Spine -7.402029 -10.805654 -3.198013
Head 14.496240 -50.861291 -1.535382
LeftShoulder -14.317764 17.501676 3.556363
LeftArm 27.908714 41.956172 -66.282701
LeftForeArm -1.569495 -0.000000 16.181466
LeftHand -10.844896 -0.000000 -4.825686
LeftHandThumb1 -26.253704 0.000000 33.147579
RightShoulder -6.600958 9.071345 -16.785542
RightArm -15.001498 62.016557 48.072789
RightForeArm 30.701361 -0.000000 106.534704
RightHand -6.671861 -0.000000 6.545839
RightHandThumb1 -24.326973 -0.000000 -32.862282
LeftUpLeg -2.564766 -2.107633 -0.921701
LeftLeg 1.420029 -0.000000 -0.000000
LeftFoot -17.958114 15.478667 -24.451499
LeftToeBase 8.659222 -0.000000 -0.000000
RightUpLeg 0.925010 -5.237571 -3.604540
RightLeg -3.090938 -0.000000 0.000000
RightFoot -16.322466 -14.846786 10.125857
RightToeBase 5.195482 -0.000000 -0.000000
2508
root -1.440046 31.798969 -6.513028 6.589037 9.389359 3.449597
Spine -7.403246 -10.816112 -3.206711
Head 14.536191 -50.790991 -1.597289
LeftShoulder -14.313332 17.530547 3.552890
LeftArm 27.897316 41.966850 -66.306517
LeftForeArm -1.564020 -0.000000 16.198035
LeftHand -10.813352 0.000000 -4.793505
LeftHandThumb1 -26.253704 0.000000 33.147579
RightShoulder -6.599853 9.081234 -16.767238
RightArm -15.016529 61.987521 48.050131
RightForeArm 30.860315 -0.000000 106.500627
RightHand -6.768729 -0.000000 6.533117
RightHandThumb1 -24.326973 -0.000000 -32.862282
LeftUpLeg -2.565088 -2.130537 -0.926599
LeftLeg 1.416916 -0.000000 -0.000000
LeftFoot -17.956646 15.482906 -24.459684
LeftToeBase 8.685591 -0.000000 -0.000000
RightUpLeg 0.922949 -5.273814 -3.609900
RightLeg -3.074547 -0.000000 0.000000
RightFoot -16.342983 -14.821797 10.122565
RightToeBase 5.241112 -0.000000 -0.000000
2509
root -1.440657 31.799125 -6.513208 6.593310 9.403634 3.447279
Spine -7.403611 -10.812415 -3.216744
Head 14.538678 -50.719592 -1.618205
LeftShoulder -14.315717 17.527831 3.558462
LeftArm 27.878930 42.017246 -66.315129
LeftForeArm -1.589512 -0.000000 16.212464
LeftHand -10.781409 -0.000000 -4.824586
LeftHandThumb1 -26.253704 0.000000 33.147579
RightShoulder -6.618907 9.115885 -16.749892
RightArm -15.031833 61.900951 48.023594
RightForeArm 31.012937 0.000000 106.442603
RightHand -6.836816 -0.000000 6.438027
RightHandThumb1 -24.326973 -0.000000 -32.862282
LeftUpLeg -2.572501 -2.130786 -0.919649
LeftLeg 1.416374 -0.000000 -0.000000
LeftFoot -17.939270 15.460529 -24.447261
LeftToeBase 8.667756 -0.000000 -0.000000
RightUpLeg 0.946240 -5.187412 -3.607404
RightLeg -3.129109 -0.000000 0.000000
RightFoot -16.324954 -14.920065 10.147136
RightToeBase 5.235697 -0.000000 -0.000000
